<mxfile host="app.diagrams.net" modified="2024-07-01T14:48:46.971Z" agent="Mozilla/5.0 (Windows NT 10.0; Win64; x64; rv:127.0) Gecko/20100101 Firefox/127.0" etag="hPYFnXFnXbBLIR2638sZ" version="24.6.4" type="github">
  <diagram name="Page-1" id="yFRj_-Jy2VOB5ZSsDRRB">
    <mxGraphModel dx="2969" dy="2447" grid="1" gridSize="10" guides="1" tooltips="1" connect="1" arrows="1" fold="1" page="1" pageScale="1" pageWidth="850" pageHeight="1100" math="0" shadow="0">
      <root>
        <mxCell id="0" />
        <mxCell id="1" parent="0" />
        <mxCell id="5HH4wGsDaSaCYKuuqc2c-1" value="AWS Account" style="points=[[0,0],[0.25,0],[0.5,0],[0.75,0],[1,0],[1,0.25],[1,0.5],[1,0.75],[1,1],[0.75,1],[0.5,1],[0.25,1],[0,1],[0,0.75],[0,0.5],[0,0.25]];outlineConnect=0;gradientColor=none;html=1;whiteSpace=wrap;fontSize=12;fontStyle=0;container=1;pointerEvents=0;collapsible=0;recursiveResize=0;shape=mxgraph.aws4.group;grIcon=mxgraph.aws4.group_account;strokeColor=#CD2264;fillColor=none;verticalAlign=top;align=left;spacingLeft=30;fontColor=#CD2264;dashed=0;" parent="1" vertex="1">
          <mxGeometry x="-370" y="-170" width="1070" height="1230" as="geometry" />
        </mxCell>
        <mxCell id="5HH4wGsDaSaCYKuuqc2c-2" value="VPC" style="sketch=0;outlineConnect=0;gradientColor=none;html=1;whiteSpace=wrap;fontSize=12;fontStyle=0;shape=mxgraph.aws4.group;grIcon=mxgraph.aws4.group_vpc;strokeColor=#879196;fillColor=none;verticalAlign=top;align=left;spacingLeft=30;fontColor=#879196;dashed=0;" parent="5HH4wGsDaSaCYKuuqc2c-1" vertex="1">
          <mxGeometry x="20" y="40" width="1030" height="1160" as="geometry" />
        </mxCell>
        <mxCell id="5HH4wGsDaSaCYKuuqc2c-3" value="Internet&#xa;gateway" style="sketch=0;outlineConnect=0;fontColor=#232F3E;gradientColor=none;strokeColor=#232F3E;fillColor=#ffffff;dashed=0;verticalLabelPosition=bottom;verticalAlign=top;align=center;html=1;fontSize=12;fontStyle=0;aspect=fixed;shape=mxgraph.aws4.resourceIcon;resIcon=mxgraph.aws4.internet_gateway;" parent="5HH4wGsDaSaCYKuuqc2c-1" vertex="1">
          <mxGeometry x="420" y="80" width="60" height="60" as="geometry" />
        </mxCell>
        <mxCell id="5HH4wGsDaSaCYKuuqc2c-4" value="" style="outlineConnect=0;dashed=0;verticalLabelPosition=bottom;verticalAlign=top;align=center;html=1;shape=mxgraph.aws3.route_table;fillColor=#F58536;gradientColor=none;" parent="5HH4wGsDaSaCYKuuqc2c-1" vertex="1">
          <mxGeometry x="412.5" y="190" width="75" height="69" as="geometry" />
        </mxCell>
        <mxCell id="5HH4wGsDaSaCYKuuqc2c-5" value="pub RT" style="text;html=1;align=center;verticalAlign=middle;whiteSpace=wrap;rounded=0;" parent="5HH4wGsDaSaCYKuuqc2c-1" vertex="1">
          <mxGeometry x="420" y="259" width="60" height="30" as="geometry" />
        </mxCell>
        <mxCell id="5HH4wGsDaSaCYKuuqc2c-7" value="" style="rounded=1;arcSize=10;dashed=1;strokeColor=#F59D56;fillColor=none;gradientColor=none;dashPattern=8 4;strokeWidth=2;" parent="5HH4wGsDaSaCYKuuqc2c-1" vertex="1">
          <mxGeometry x="70" y="330" width="260" height="850" as="geometry" />
        </mxCell>
        <mxCell id="5HH4wGsDaSaCYKuuqc2c-8" value="" style="rounded=1;arcSize=10;dashed=1;strokeColor=#F59D56;fillColor=none;gradientColor=none;dashPattern=8 4;strokeWidth=2;" parent="5HH4wGsDaSaCYKuuqc2c-1" vertex="1">
          <mxGeometry x="370" y="335" width="249.75" height="850" as="geometry" />
        </mxCell>
        <mxCell id="5HH4wGsDaSaCYKuuqc2c-9" value="" style="rounded=1;arcSize=10;dashed=1;strokeColor=#F59D56;fillColor=none;gradientColor=none;dashPattern=8 4;strokeWidth=2;" parent="5HH4wGsDaSaCYKuuqc2c-1" vertex="1">
          <mxGeometry x="640" y="340" width="199.5" height="840" as="geometry" />
        </mxCell>
        <mxCell id="iJiNoyqtIflM8u38ytWo-2" value="" style="rounded=0;whiteSpace=wrap;html=1;" vertex="1" parent="5HH4wGsDaSaCYKuuqc2c-1">
          <mxGeometry x="80" y="950" width="750" height="190" as="geometry" />
        </mxCell>
        <mxCell id="iJiNoyqtIflM8u38ytWo-3" value="Kubernetes cluster" style="text;html=1;align=center;verticalAlign=middle;whiteSpace=wrap;rounded=0;" vertex="1" parent="5HH4wGsDaSaCYKuuqc2c-1">
          <mxGeometry x="90" y="960" width="140" height="30" as="geometry" />
        </mxCell>
        <mxCell id="iJiNoyqtIflM8u38ytWo-4" value="" style="rounded=1;arcSize=10;dashed=1;strokeColor=#F59D56;fillColor=none;gradientColor=none;dashPattern=8 4;strokeWidth=2;" vertex="1" parent="5HH4wGsDaSaCYKuuqc2c-1">
          <mxGeometry x="90" y="770" width="510" height="150" as="geometry" />
        </mxCell>
        <mxCell id="iJiNoyqtIflM8u38ytWo-5" value="Keepalived (failover and feedback function)" style="text;html=1;align=center;verticalAlign=middle;whiteSpace=wrap;rounded=0;" vertex="1" parent="5HH4wGsDaSaCYKuuqc2c-1">
          <mxGeometry x="100" y="780" width="260" height="30" as="geometry" />
        </mxCell>
        <mxCell id="iJiNoyqtIflM8u38ytWo-6" value="Public subnet" style="points=[[0,0],[0.25,0],[0.5,0],[0.75,0],[1,0],[1,0.25],[1,0.5],[1,0.75],[1,1],[0.75,1],[0.5,1],[0.25,1],[0,1],[0,0.75],[0,0.5],[0,0.25]];outlineConnect=0;gradientColor=none;html=1;whiteSpace=wrap;fontSize=12;fontStyle=0;container=1;pointerEvents=0;collapsible=0;recursiveResize=0;shape=mxgraph.aws4.group;grIcon=mxgraph.aws4.group_security_group;grStroke=0;strokeColor=#7AA116;fillColor=#F2F6E8;verticalAlign=top;align=left;spacingLeft=30;fontColor=#248814;dashed=0;" vertex="1" parent="5HH4wGsDaSaCYKuuqc2c-1">
          <mxGeometry x="130" y="400" width="130" height="109" as="geometry" />
        </mxCell>
        <mxCell id="iJiNoyqtIflM8u38ytWo-7" value="Public subnet" style="points=[[0,0],[0.25,0],[0.5,0],[0.75,0],[1,0],[1,0.25],[1,0.5],[1,0.75],[1,1],[0.75,1],[0.5,1],[0.25,1],[0,1],[0,0.75],[0,0.5],[0,0.25]];outlineConnect=0;gradientColor=none;html=1;whiteSpace=wrap;fontSize=12;fontStyle=0;container=1;pointerEvents=0;collapsible=0;recursiveResize=0;shape=mxgraph.aws4.group;grIcon=mxgraph.aws4.group_security_group;grStroke=0;strokeColor=#7AA116;fillColor=#F2F6E8;verticalAlign=top;align=left;spacingLeft=30;fontColor=#248814;dashed=0;" vertex="1" parent="5HH4wGsDaSaCYKuuqc2c-1">
          <mxGeometry x="429.88" y="400" width="130" height="110" as="geometry" />
        </mxCell>
        <mxCell id="iJiNoyqtIflM8u38ytWo-8" value="Public subnet" style="points=[[0,0],[0.25,0],[0.5,0],[0.75,0],[1,0],[1,0.25],[1,0.5],[1,0.75],[1,1],[0.75,1],[0.5,1],[0.25,1],[0,1],[0,0.75],[0,0.5],[0,0.25]];outlineConnect=0;gradientColor=none;html=1;whiteSpace=wrap;fontSize=12;fontStyle=0;container=1;pointerEvents=0;collapsible=0;recursiveResize=0;shape=mxgraph.aws4.group;grIcon=mxgraph.aws4.group_security_group;grStroke=0;strokeColor=#7AA116;fillColor=#F2F6E8;verticalAlign=top;align=left;spacingLeft=30;fontColor=#248814;dashed=0;" vertex="1" parent="5HH4wGsDaSaCYKuuqc2c-1">
          <mxGeometry x="669.75" y="400" width="140" height="109" as="geometry" />
        </mxCell>
        <mxCell id="iJiNoyqtIflM8u38ytWo-10" style="edgeStyle=orthogonalEdgeStyle;rounded=0;orthogonalLoop=1;jettySize=auto;html=1;" edge="1" parent="1" source="iJiNoyqtIflM8u38ytWo-9" target="5HH4wGsDaSaCYKuuqc2c-1">
          <mxGeometry relative="1" as="geometry" />
        </mxCell>
        <mxCell id="iJiNoyqtIflM8u38ytWo-9" value="" style="outlineConnect=0;dashed=0;verticalLabelPosition=bottom;verticalAlign=top;align=center;html=1;shape=mxgraph.aws3.cloud_2;fillColor=#F58534;gradientColor=none;" vertex="1" parent="1">
          <mxGeometry x="-760" y="320" width="130" height="135" as="geometry" />
        </mxCell>
        <mxCell id="iJiNoyqtIflM8u38ytWo-13" style="edgeStyle=orthogonalEdgeStyle;rounded=0;orthogonalLoop=1;jettySize=auto;html=1;" edge="1" parent="1" source="iJiNoyqtIflM8u38ytWo-11">
          <mxGeometry relative="1" as="geometry">
            <mxPoint x="-1120" y="365" as="targetPoint" />
          </mxGeometry>
        </mxCell>
        <mxCell id="iJiNoyqtIflM8u38ytWo-11" value="" style="sketch=0;points=[[0,0,0],[0.25,0,0],[0.5,0,0],[0.75,0,0],[1,0,0],[0,1,0],[0.25,1,0],[0.5,1,0],[0.75,1,0],[1,1,0],[0,0.25,0],[0,0.5,0],[0,0.75,0],[1,0.25,0],[1,0.5,0],[1,0.75,0]];outlineConnect=0;fontColor=#232F3E;fillColor=#ED7100;strokeColor=#ffffff;dashed=0;verticalLabelPosition=bottom;verticalAlign=top;align=center;html=1;fontSize=12;fontStyle=0;aspect=fixed;shape=mxgraph.aws4.resourceIcon;resIcon=mxgraph.aws4.ec2;" vertex="1" parent="1">
          <mxGeometry x="-1380" y="320" width="90" height="90" as="geometry" />
        </mxCell>
        <mxCell id="iJiNoyqtIflM8u38ytWo-14" style="edgeStyle=orthogonalEdgeStyle;rounded=0;orthogonalLoop=1;jettySize=auto;html=1;" edge="1" parent="1" source="iJiNoyqtIflM8u38ytWo-12">
          <mxGeometry relative="1" as="geometry">
            <mxPoint x="-770" y="370" as="targetPoint" />
          </mxGeometry>
        </mxCell>
        <mxCell id="iJiNoyqtIflM8u38ytWo-12" value="" style="shape=image;verticalLabelPosition=bottom;labelBackgroundColor=default;verticalAlign=top;aspect=fixed;imageAspect=0;image=data:image/png,iVBORw0KGgoAAAANSUhEUgAAAT4AAACfCAMAAABX0UX9AAAA8FBMVEX///9cTuUAAABAQLJRQeRUROTU0fiwq/JXSeQwMK7v7fw1Na/Ly+mKgexXR+WlpdhbW1vDw8Pe3t5gYGAWFhaFhYUnJyf4+PhVVVVqamqurq5DQ0Oampp7e3vw8PCoqKgfHx8wMDDV1dVNTU329f7m5uZxcXHMzMw3NzdiVOaXl5csLCyCeOq3svPn5fs7O7G3t7dMO+PDvvV7cOne2/nLx/ZINeOGhsuSiu1rX+enoPArK63a1/moovCxrPJoW+edlu+0tN5yZ+heXr0hIat8fMfAwORISLZra8JSUrmTk9F0dMWXj+5pacGFe+vY2O6MH/FkAAAIvklEQVR4nO2daWOiOhRAoWqrdeoo1eJWVNRi7aJtZ+/0zbSzL2/6///NS0gIIWEVlPrmnk+DYJocyc0KoygAAAAAAAAAAAAAAAAAAAAAAAAAAAB5cXeZdw62mj9XHyd552GLOSiXTi/yzsT2clBW1eLD+7yzsa1gfWr56mA/74xsJ7Y+JLB0l3dOthKqT1VLp9d552ULYfpQCLx5kXdutg5OHwqBb6ATkwxen6rWSv/knaHtwqsP1eAPL/PO0jYh6lPLxXMIgbGR9GGBMI6Li48+1ImpwTguHr76UAh8u5t3zraCAH2oBh/AVFY0QfrwOO4dhMAogvWhEKjCOC6CMH2qegUTMeGE66uBvnCi9V2k7MTc32eT0ydJtL69Vw8phiGPnz4/zy63T44Y+kqoE7NiJd7/cruo/u368EzM3iqJP69WCwXQp+LJ6MQzMV+/VQoF0Fci/044Gf34vbIogD6mD43j4k9GT15TeaCv5B6WYnZi7nHQA32CvpiT0c9+VAoF0OejD9XgPxEzMZe/WL0FfaK+qMlo/adXHugriZ+W1MAQeF+oFgqgL1Qfnoz23VT0+KkiygN9PvrwpiIpBOIRmmwP9Pmfqt15QqD+vCrV2/+/vjdXK+oTJqO/ykHvb9CnXJ8G6YnSh/dV0nGcb9D7K/Qp+rtSbUV9dFPRxD/o5alvajUsc7qZv3V5UAyIgFH6VPVqF40yPgfLy0PftNXcsWmON2Nw921xRX1FrC+45vL6ploQRqaFaey4ZJtyMBeqn6VM9XV2gphnWRKNTznLhEOZ/PapwZnqOwnU18+yIIdcwr0sE47g8lwSuIX6dCfRJgqA9QwTjublByEEbqE+iyRZR42GrmkZJhyHf7ydmA3Fviz1dUmSG+q0iEze8DU4U32DYwfSrzhrOceNDAtA9ekZJpmIFzduDc5Un8uRXcLDtWQ/b30oBLJx3Fr1rSeu569P0e+Ktc3q0zU8ygro5BrC56xBMKaaqU29Z6k+MQ00imtYWoBUqYUxtEZD4w+tRqJgun9wVd6YPn3Qo23IsOXk0hrOZrMhPjIPd1BsPDmbzUZ2de+OsBtzcDJiXZQODZ7dcbs9I58dYZp9mv7YubTXd2TPm0dHwxH+13KGByc99PdG+KTZr9NrbYHagHYkR2YSge8fihvSt/S0wnQEQkZelmLikncVpU7vKfvmMhRTaLvP7KLOxSZ9IKdPPlOUFq3jS9yOoW/bzVlD7x9xlxpKd8YdJvKnXKulTejrC0U+5vT1W45Scgs0SGk0xRBFYQOyvqXfh8ecviW57y2qb+S9ctb0HB4l0qdM3l2tX58liWi4+twC80MxXNqjHYGenylLuvcwfVcfpUv1RZDs9kPjuMna9c2kTI4kfWNBHypt269skj70mZ8GQ9Q3j6dvle79evWZJGPNJWoUtTortFdfR9CH7s95Z760poZhaN0jpmCKWleqxcQTYabuNMQ7c9MwTCdOzEV9A0Hf0F/fyQr6roPmUuPpW9x+DdNHbxja4A7Zj8zpq+OwxumbC90POklAe+FCv4/7RRBTcjTz6mvhi5m+znLKh5T2QGM/8ko91eDJ6Gh9i8ovnz0dnD5SCTv0RIv9yExfz7LPMH3HcueQDKZ7vvqa3ttmzs4yfSdT7sKm07GhMcXpSJFfob2KPkXZFWdi4uqr/Hjmlx6nj7R1znxpl+XS0Ue7GY6+mV/0brFbStJH78yucylNdsr0nVn0DNHHohtpkVvOYSeNPkW5KAcsJ4Xpqy4Cljk4fUNPrpfsPqLlZLYOeUUCxMSIHHj10Q7O0rnUJMca08cSWZc+Uvl8J6ND9S0qr4O2Ekn6Rm3CTNTHRk6H7IxMtD42pbN5fXd0V7PPZHSIvkXl38fAJCV9XmLqM5eDPmbQfsr69orOlj5pMjpYX+Wb3N66ZKFvIH7zqeoruVv69qQVdV991Ur42m4G+uSZ/6erT1VLZbKfZf+NUIN99C0qXyKeoonQhxuICH0N+VtPWZ/7fPmLh2K4vsqn4KBHkfTVuwOOpRKpr75t+tznyz2bikR91dCgR5H0yevkEfrI2baGh20GMXFGzjy1jos75q0VyfPlk3duDfbqW1R+xpkl5/SdebPJCNdneM7Og/VFdpvZH1y/PndLH52MFvQtbn/Fe3SQ0zcOyFe4Pjp2pQOsEH3UijModKTp+ehzt/Q5m4o4fQEjNB84fceCJoRd8lh3Hx2Qhumjgz0a/OhMAE4mH314Sx+5xa7tTUVMX7UQ/7FnTp/ThPY1Q9cNrdE/JEWIFftOkCSjQZff/fU5s6WdpWUtnd4O/gs56cO7msnTqZOPKARSfYvbnwleu8FPl+5I2DUtQp+ztjRyZ5399flOg3LTpYr3ug3oc59OvTy/srdH3t5+T/S8NK9vIBXOXlKI0CcukATr8+kh2rM4OerDT6eSTsyuivUt4gY9imepSB4/TJVIfbr0JWchR1oml34f4iRXfSgE/ia1Fd12id+WM+T1+a5QSPpIP9mdsDK567u22yE5Ie8ysLzLSrQTI+ojh6wDumZ9KASWV37FRn2MOXYOp3MnlO0M63MyxWeO6wh3b3KrjQ7b3GKDRtvUeldXlvgk7ZxYJ/auI0/3c9lxDNYHzokB/k7d3WdTH7fb7R7rIB6jo3GP2Wzhs26OExC8VJThe8LwJo3gXRr+GFbwtgv5Ys20zGkOO19CVtrKxXN4T1gEoQuV5Vfwqslwotd5gRBAXypAXypAXypAXypAXypAXypAXypAXypAXypAXypAXypAXypAXypAXypAXyruQl/TBPoimIhb+kBfMi5vAp9LAH1xCH5PGOiLgy7vagZ9SXC39IG+lRB2NYO+pPiEQNCXAH5XM+hbgUshBIK+hHifTgV9ieFflQj6kmPvagZ9q3N5XgR9aXh5WgR9adir1UBfCvDTqaAvBS9uXoG+NFz7/scdAAAAAAAAAAAAAAAAAAAAAAAAAAAAQMb8BxFh3sexNpv5AAAAAElFTkSuQmCC;" vertex="1" parent="1">
          <mxGeometry x="-1110" y="320" width="200" height="100" as="geometry" />
        </mxCell>
        <mxCell id="iJiNoyqtIflM8u38ytWo-15" value="Jenkins" style="text;html=1;align=center;verticalAlign=middle;whiteSpace=wrap;rounded=0;" vertex="1" parent="1">
          <mxGeometry x="-1382.5" y="410" width="95" height="60" as="geometry" />
        </mxCell>
      </root>
    </mxGraphModel>
  </diagram>
</mxfile>
